<?xml version="1.0" encoding="UTF-8" standalone="no"?>
<svg width="128px" height="39px" viewBox="0 0 128 39" version="1.1" xmlns="http://www.w3.org/2000/svg" xmlns:xlink="http://www.w3.org/1999/xlink">
    <!-- Generator: Sketch 50 (54983) - http://www.bohemiancoding.com/sketch -->
    <title>google_play_badge</title>
    <desc>Created with Sketch.</desc>
    <defs>
        <linearGradient x1="90.7692308%" y1="4.84%" x2="-38.3307692%" y2="71.968%" id="linearGradient-1">
            <stop stop-color="#00A0FF" offset="0%"></stop>
            <stop stop-color="#00A1FF" offset="0.7%"></stop>
            <stop stop-color="#00BEFF" offset="26%"></stop>
            <stop stop-color="#00D2FF" offset="51.2%"></stop>
            <stop stop-color="#00DFFF" offset="76%"></stop>
            <stop stop-color="#00E3FF" offset="100%"></stop>
        </linearGradient>
        <linearGradient x1="107.724138%" y1="49.4235294%" x2="-130.669951%" y2="49.4235294%" id="linearGradient-2">
            <stop stop-color="#FFE000" offset="0%"></stop>
            <stop stop-color="#FFBD00" offset="40.9%"></stop>
            <stop stop-color="#FFA500" offset="77.5%"></stop>
            <stop stop-color="#FF9C00" offset="100%"></stop>
        </linearGradient>
        <linearGradient x1="86.3892216%" y1="17.81427%" x2="-49.8862275%" y2="194.389687%" id="linearGradient-3">
            <stop stop-color="#FF3A44" offset="0%"></stop>
            <stop stop-color="#C31162" offset="100%"></stop>
        </linearGradient>
        <linearGradient x1="-18.5808383%" y1="-54.5282125%" x2="42.2754491%" y2="24.6924404%" id="linearGradient-4">
            <stop stop-color="#32A071" offset="0%"></stop>
            <stop stop-color="#2DA771" offset="6.9%"></stop>
            <stop stop-color="#15CF74" offset="47.6%"></stop>
            <stop stop-color="#06E775" offset="80.1%"></stop>
            <stop stop-color="#00F076" offset="100%"></stop>
        </linearGradient>
    </defs>
    <g id="Revision-[Apr26]" stroke="none" stroke-width="1" fill="none" fill-rule="evenodd">
        <g id="Artboard" transform="translate(-18.000000, -19.000000)" fill-rule="nonzero">
            <g id="google_play_badge" transform="translate(18.000000, 19.000000)">
                <path d="M123.259259,39 L4.74074074,39 C2.08592593,39 0,36.855 0,34.125 L0,4.875 C0,2.145 2.08592593,0 4.74074074,0 L123.259259,0 C125.914074,0 128,2.145 128,4.875 L128,34.125 C128,36.855 125.914074,39 123.259259,39 Z" id="Shape" fill="#000000"></path>
                <path d="M123.259259,0.78 C125.44,0.78 127.241481,2.6325 127.241481,4.875 L127.241481,34.125 C127.241481,36.3675 125.44,38.22 123.259259,38.22 L4.74074074,38.22 C2.56,38.22 0.758518519,36.3675 0.758518519,34.125 L0.758518519,4.875 C0.758518519,2.6325 2.56,0.78 4.74074074,0.78 L123.259259,0.78 Z M123.259259,0 L4.74074074,0 C2.08592593,0 0,2.2425 0,4.875 L0,34.125 C0,36.855 2.08592593,39 4.74074074,39 L123.259259,39 C125.914074,39 128,36.855 128,34.125 L128,4.875 C128,2.2425 125.914074,0 123.259259,0 Z" id="Shape" fill="#A6A6A6"></path>
                <path d="M44.9422222,9.945 C44.9422222,10.725 44.7525926,11.4075 44.2785185,11.895 C43.7096296,12.48 43.0459259,12.7725 42.1925926,12.7725 C41.3392593,12.7725 40.6755556,12.48 40.1066667,11.895 C39.5377778,11.31 39.2533333,10.6275 39.2533333,9.75 C39.2533333,8.8725 39.5377778,8.19 40.1066667,7.605 C40.6755556,7.02 41.3392593,6.7275 42.1925926,6.7275 C42.5718519,6.7275 42.9511111,6.825 43.3303704,7.02 C43.7096296,7.215 43.9940741,7.41 44.1837037,7.7025 L43.7096296,8.19 C43.3303704,7.7025 42.8562963,7.5075 42.1925926,7.5075 C41.6237037,7.5075 41.0548148,7.7025 40.6755556,8.19 C40.2014815,8.58 40.0118519,9.165 40.0118519,9.8475 C40.0118519,10.53 40.2014815,11.115 40.6755556,11.505 C41.1496296,11.895 41.6237037,12.1875 42.1925926,12.1875 C42.8562963,12.1875 43.3303704,11.9925 43.8044444,11.505 C44.0888889,11.2125 44.2785185,10.8225 44.2785185,10.335 L42.1925926,10.335 L42.1925926,9.555 L44.9422222,9.555 L44.9422222,9.945 Z M49.3037037,7.5075 L46.7437037,7.5075 L46.7437037,9.36 L49.1140741,9.36 L49.1140741,10.0425 L46.7437037,10.0425 L46.7437037,11.895 L49.3037037,11.895 L49.3037037,12.675 L45.9851852,12.675 L45.9851852,6.825 L49.3037037,6.825 L49.3037037,7.5075 Z M52.4325926,12.675 L51.6740741,12.675 L51.6740741,7.5075 L50.0622222,7.5075 L50.0622222,6.825 L54.0444444,6.825 L54.0444444,7.5075 L52.4325926,7.5075 L52.4325926,12.675 Z M56.7940741,12.675 L56.7940741,6.825 L57.5525926,6.825 L57.5525926,12.675 L56.7940741,12.675 Z M60.7762963,12.675 L60.0177778,12.675 L60.0177778,7.5075 L58.4059259,7.5075 L58.4059259,6.825 L62.2933333,6.825 L62.2933333,7.5075 L60.6814815,7.5075 L60.6814815,12.675 L60.7762963,12.675 Z M69.7837037,11.895 C69.2148148,12.48 68.5511111,12.7725 67.6977778,12.7725 C66.8444444,12.7725 66.1807407,12.48 65.6118519,11.895 C65.042963,11.31 64.7585185,10.6275 64.7585185,9.75 C64.7585185,8.8725 65.042963,8.19 65.6118519,7.605 C66.1807407,7.02 66.8444444,6.7275 67.6977778,6.7275 C68.5511111,6.7275 69.2148148,7.02 69.7837037,7.605 C70.3525926,8.19 70.637037,8.8725 70.637037,9.75 C70.637037,10.6275 70.3525926,11.31 69.7837037,11.895 Z M66.1807407,11.4075 C66.56,11.7975 67.1288889,12.09 67.6977778,12.09 C68.2666667,12.09 68.8355556,11.895 69.2148148,11.4075 C69.5940741,11.0175 69.8785185,10.4325 69.8785185,9.75 C69.8785185,9.0675 69.6888889,8.4825 69.2148148,8.0925 C68.8355556,7.7025 68.2666667,7.41 67.6977778,7.41 C67.1288889,7.41 66.56,7.605 66.1807407,8.0925 C65.8014815,8.4825 65.517037,9.0675 65.517037,9.75 C65.517037,10.4325 65.7066667,11.0175 66.1807407,11.4075 Z M71.68,12.675 L71.68,6.825 L72.5333333,6.825 L75.282963,11.4075 L75.282963,6.825 L76.0414815,6.825 L76.0414815,12.675 L75.282963,12.675 L72.3437037,7.8975 L72.3437037,12.675 L71.68,12.675 Z" id="Shape" stroke="#FFFFFF" stroke-width="0.5" fill="#FFFFFF"></path>
                <path d="M64.5688889,21.255 C62.2933333,21.255 60.4918519,23.01 60.4918519,25.4475 C60.4918519,27.7875 62.2933333,29.64 64.5688889,29.64 C66.8444444,29.64 68.6459259,27.885 68.6459259,25.4475 C68.6459259,22.9125 66.8444444,21.255 64.5688889,21.255 Z M64.5688889,27.885 C63.3362963,27.885 62.2933333,26.8125 62.2933333,25.35 C62.2933333,23.8875 63.3362963,22.815 64.5688889,22.815 C65.8014815,22.815 66.8444444,23.79 66.8444444,25.35 C66.8444444,26.8125 65.8014815,27.885 64.5688889,27.885 Z M55.7511111,21.255 C53.4755556,21.255 51.6740741,23.01 51.6740741,25.4475 C51.6740741,27.7875 53.4755556,29.64 55.7511111,29.64 C58.0266667,29.64 59.8281481,27.885 59.8281481,25.4475 C59.8281481,22.9125 58.0266667,21.255 55.7511111,21.255 Z M55.7511111,27.885 C54.5185185,27.885 53.4755556,26.8125 53.4755556,25.35 C53.4755556,23.8875 54.5185185,22.815 55.7511111,22.815 C56.9837037,22.815 58.0266667,23.79 58.0266667,25.35 C58.0266667,26.8125 56.9837037,27.885 55.7511111,27.885 Z M45.2266667,22.5225 L45.2266667,24.2775 L49.3037037,24.2775 C49.2088889,25.2525 48.8296296,26.0325 48.3555556,26.52 C47.7866667,27.105 46.8385185,27.7875 45.2266667,27.7875 C42.6666667,27.7875 40.7703704,25.74 40.7703704,23.1075 C40.7703704,20.475 42.7614815,18.4275 45.2266667,18.4275 C46.5540741,18.4275 47.597037,19.0125 48.3555556,19.695 L49.5881481,18.4275 C48.5451852,17.4525 47.2177778,16.6725 45.3214815,16.6725 C41.9081481,16.6725 38.9688889,19.5975 38.9688889,23.1075 C38.9688889,26.6175 41.9081481,29.5425 45.3214815,29.5425 C47.2177778,29.5425 48.5451852,28.9575 49.682963,27.69 C50.8207407,26.52 51.2,24.8625 51.2,23.595 C51.2,23.205 51.2,22.815 51.1051852,22.5225 L45.2266667,22.5225 Z M88.2725926,23.8875 C87.8933333,22.9125 86.9451852,21.255 84.8592593,21.255 C82.7733333,21.255 81.0666667,22.9125 81.0666667,25.4475 C81.0666667,27.7875 82.7733333,29.64 85.0488889,29.64 C86.8503704,29.64 87.9881481,28.47 88.3674074,27.7875 L87.04,26.8125 C86.5659259,27.495 85.997037,27.9825 85.0488889,27.9825 C84.1007407,27.9825 83.5318519,27.5925 83.0577778,26.715 L88.4622222,24.375 L88.2725926,23.8875 Z M82.7733333,25.2525 C82.7733333,23.6925 84.0059259,22.815 84.8592593,22.815 C85.522963,22.815 86.1866667,23.205 86.3762963,23.6925 L82.7733333,25.2525 Z M78.317037,29.25 L80.1185185,29.25 L80.1185185,17.0625 L78.317037,17.0625 L78.317037,29.25 Z M75.4725926,22.1325 C74.9985185,21.645 74.24,21.1575 73.2918519,21.1575 C71.3007407,21.1575 69.4044444,23.01 69.4044444,25.35 C69.4044444,27.69 71.2059259,29.445 73.2918519,29.445 C74.24,29.445 74.9985185,28.9575 75.3777778,28.47 L75.4725926,28.47 L75.4725926,29.055 C75.4725926,30.615 74.6192593,31.4925 73.2918519,31.4925 C72.2488889,31.4925 71.4903704,30.7125 71.3007407,30.03 L69.7837037,30.7125 C70.2577778,31.785 71.3955556,33.15 73.3866667,33.15 C75.4725926,33.15 77.1792593,31.8825 77.1792593,28.86 L77.1792593,21.45 L75.4725926,21.45 L75.4725926,22.1325 Z M73.3866667,27.885 C72.1540741,27.885 71.1111111,26.8125 71.1111111,25.35 C71.1111111,23.8875 72.1540741,22.815 73.3866667,22.815 C74.6192593,22.815 75.5674074,23.8875 75.5674074,25.35 C75.5674074,26.8125 74.6192593,27.885 73.3866667,27.885 Z M96.5214815,17.0625 L92.2548148,17.0625 L92.2548148,29.25 L94.0562963,29.25 L94.0562963,24.6675 L96.5214815,24.6675 C98.5125926,24.6675 100.408889,23.205 100.408889,20.865 C100.408889,18.525 98.5125926,17.0625 96.5214815,17.0625 Z M96.6162963,22.9125 L94.0562963,22.9125 L94.0562963,18.72 L96.6162963,18.72 C97.9437037,18.72 98.7022222,19.89 98.7022222,20.7675 C98.6074074,21.84 97.8488889,22.9125 96.6162963,22.9125 Z M107.52,21.1575 C106.192593,21.1575 104.865185,21.7425 104.391111,23.01 L106.002963,23.6925 C106.382222,23.01 106.951111,22.815 107.614815,22.815 C108.562963,22.815 109.416296,23.4 109.511111,24.375 L109.511111,24.4725 C109.226667,24.2775 108.468148,23.985 107.70963,23.985 C106.002963,23.985 104.296296,24.96 104.296296,26.715 C104.296296,28.3725 105.718519,29.445 107.235556,29.445 C108.468148,29.445 109.037037,28.86 109.511111,28.275 L109.605926,28.275 L109.605926,29.25 L111.312593,29.25 L111.312593,24.57 C111.122963,22.425 109.511111,21.1575 107.52,21.1575 Z M107.33037,27.885 C106.761481,27.885 105.908148,27.5925 105.908148,26.8125 C105.908148,25.8375 106.951111,25.545 107.804444,25.545 C108.562963,25.545 108.942222,25.74 109.416296,25.935 C109.226667,27.105 108.278519,27.885 107.33037,27.885 Z M117.285926,21.45 L115.294815,26.715 L115.2,26.715 L113.114074,21.45 L111.217778,21.45 L114.346667,28.86 L112.545185,32.955 L114.346667,32.955 L119.182222,21.45 L117.285926,21.45 Z M101.357037,29.25 L103.158519,29.25 L103.158519,17.0625 L101.357037,17.0625 L101.357037,29.25 Z" id="Shape" fill="#FFFFFF"></path>
                <g id="Group" transform="translate(9.481481, 6.825000)">
                    <path d="M0.379259259,0.4875 C0.0948148148,0.78 0,1.2675 0,1.8525 L0,23.4 C0,23.985 0.18962963,24.4725 0.474074074,24.765 L0.568888889,24.8625 L12.3259259,12.7725 L12.3259259,12.5775 L0.379259259,0.4875 Z" id="Shape" fill="url(#linearGradient-1)"></path>
                    <path d="M16.1185185,16.8675 L12.2311111,12.87 L12.2311111,12.5775 L16.1185185,8.58 L16.2133333,8.6775 L20.8592593,11.4075 C22.1866667,12.1875 22.1866667,13.455 20.8592593,14.235 L16.1185185,16.8675 Z" id="Shape" fill="url(#linearGradient-2)"></path>
                    <path d="M16.2133333,16.77 L12.2311111,12.675 L0.379259259,24.8625 C0.853333333,25.35 1.51703704,25.35 2.37037037,24.96 L16.2133333,16.77" id="Shape" fill="url(#linearGradient-3)"></path>
                    <path d="M16.2133333,8.58 L2.37037037,0.4875 C1.51703704,-1.11022302e-16 0.853333333,0.0975 0.379259259,0.585 L12.2311111,12.675 L16.2133333,8.58 Z" id="Shape" fill="url(#linearGradient-4)"></path>
                    <path d="M16.1185185,16.6725 L2.37037037,24.6675 C1.61185185,25.155 0.948148148,25.0575 0.474074074,24.6675 L0.379259259,24.765 L0.474074074,24.8625 C0.948148148,25.2525 1.61185185,25.35 2.37037037,24.8625 L16.1185185,16.6725 Z" id="Shape" fill="#000000" opacity="0.2"></path>
                    <path d="M0.379259259,24.6675 C0.0948148148,24.375 0,23.8875 0,23.3025 L0,23.4 C0,23.985 0.18962963,24.4725 0.474074074,24.765 L0.474074074,24.6675 L0.379259259,24.6675 Z M20.8592593,13.9425 L16.1185185,16.6725 L16.2133333,16.77 L20.8592593,14.04 C21.522963,13.65 21.8074074,13.1625 21.8074074,12.675 C21.8074074,13.1625 21.4281481,13.5525 20.8592593,13.9425 Z" id="Shape" fill="#000000" opacity="0.12"></path>
                    <path d="M2.37037037,0.585 L20.8592593,11.4075 C21.4281481,11.7975 21.8074074,12.1875 21.8074074,12.675 C21.8074074,12.1875 21.522963,11.7 20.8592593,11.31 L2.37037037,0.4875 C1.04296296,-0.2925 0,0.2925 0,1.8525 L0,1.95 C0,0.4875 1.04296296,-0.195 2.37037037,0.585 Z" id="Shape" fill="#FFFFFF" opacity="0.25"></path>
                </g>
            </g>
        </g>
    </g>
</svg>